<?xml version="1.0" encoding="UTF-8" standalone="no"?>
<!DOCTYPE svg PUBLIC "-//W3C//DTD SVG 1.1//EN" "http://www.w3.org/Graphics/SVG/1.1/DTD/svg11.dtd">
<svg width="100%" height="100%" viewBox="0 0 150 38" version="1.1" xmlns="http://www.w3.org/2000/svg" xmlns:xlink="http://www.w3.org/1999/xlink" xml:space="preserve" xmlns:serif="http://www.serif.com/" style="fill-rule:evenodd;clip-rule:evenodd;stroke-linejoin:round;stroke-miterlimit:2;">
    <g id="g14" transform="matrix(1,0,0,1,0,-0.0934541)">
        <path id="polygon2" d="M69.32,36.888L78.257,36.888L78.257,1.236L69.32,1.236L69.32,36.888Z" style="fill:rgb(150,146,137);"/>
        <path id="path4" d="M100.448,29.38C106.127,29.38 110.3,24.514 110.3,19.052C110.3,13.589 106.104,8.769 100.448,8.769C94.769,8.769 90.574,13.589 90.574,19.052C90.574,24.514 94.769,29.38 100.448,29.38M100.518,0.093C111.227,0.093 119.85,8.31 119.85,18.983C119.85,29.701 111.157,38.078 100.425,38.078C89.693,38.078 81.001,29.816 81.001,19.12C81.001,8.448 89.809,0.093 100.518,0.093M120.878,26.106L129.078,24.177C129.667,28.461 132.815,30.009 136.122,30.009C139.407,30.009 140.608,28.08 140.608,26.577C140.608,25.366 139.905,24.177 137.504,23.706L132.498,22.742C126.518,21.598 122.282,17.875 122.282,12.155C122.282,5.337 128.557,0.537 135.647,0.537C144.776,0.537 148.536,6.189 149.193,10.922L141.151,13.165C140.721,10.249 138.909,8.141 135.602,8.141C132.747,8.141 131.388,10.025 131.388,11.46C131.388,12.649 131.955,14.017 134.084,14.421L139.294,15.407C146.112,16.709 149.85,20.835 149.85,26.196C149.85,32.027 144.776,37.635 136.077,37.635C126.971,37.635 122.078,32.902 120.878,26.106" style="fill:rgb(150,146,137);"/>
        <path id="polygon6" d="M9.618,36.888L0,36.888L15.904,1.236L25.568,1.236L9.618,36.888Z" style="fill:rgb(150,146,137);"/>
        <path id="polygon8" d="M43.448,1.214L32.37,1.214L44.472,18.658L37.738,28.434L25.606,1.235L15.941,1.235L31.892,36.888L42.207,36.888L49.742,25.586L57.188,36.888L67.616,36.888L55.169,18.658L67.115,1.214L56.185,1.214L49.742,11.774L43.448,1.214Z" style="fill:rgb(150,146,137);"/>
    </g>
</svg>
