<?xml version="1.0" encoding="UTF-8" standalone="no"?>
<!DOCTYPE svg PUBLIC "-//W3C//DTD SVG 1.1//EN" "http://www.w3.org/Graphics/SVG/1.1/DTD/svg11.dtd">
<svg width="100%" height="100%" viewBox="0 0 40 40" version="1.1" xmlns="http://www.w3.org/2000/svg" xmlns:xlink="http://www.w3.org/1999/xlink" xml:space="preserve" xmlns:serif="http://www.serif.com/" style="fill-rule:evenodd;clip-rule:evenodd;stroke-linejoin:round;stroke-miterlimit:2;">
    <g id="g14" transform="matrix(1,0,0,1,0,0.914246)">
        <g id="polygon6" transform="matrix(0.584531,0,0,0.567954,0,7.39994)">
            <path d="M9.618,36.888L0,36.888L15.904,1.236L25.568,1.236L9.618,36.888Z" style="fill:rgb(150,146,137);"/>
        </g>
        <g id="polygon8" transform="matrix(0.584531,0,0,0.567954,0,7.39994)">
            <path d="M43.448,1.214L32.37,1.214L44.472,18.658L37.738,28.434L25.606,1.235L15.941,1.235L31.892,36.888L42.207,36.888L49.742,25.586L57.188,36.888L67.616,36.888L55.169,18.658L67.115,1.214L56.185,1.214L49.742,11.774L43.448,1.214Z" style="fill:rgb(150,146,137);"/>
        </g>
    </g>
</svg>
